<?xml version="1.0" encoding="UTF-8" standalone="no"?>
<!-- Created with Inkscape (http://www.inkscape.org/) -->

<svg
   xmlns:dc="http://purl.org/dc/elements/1.1/"
   xmlns:cc="http://creativecommons.org/ns#"
   xmlns:rdf="http://www.w3.org/1999/02/22-rdf-syntax-ns#"
   xmlns:svg="http://www.w3.org/2000/svg"
   xmlns="http://www.w3.org/2000/svg"
   xmlns:sodipodi="http://sodipodi.sourceforge.net/DTD/sodipodi-0.dtd"
   xmlns:inkscape="http://www.inkscape.org/namespaces/inkscape"
   width="210mm"
   height="297mm"
   id="svg2"
   version="1.1"
   inkscape:version="0.48.3.1 r9886"
   sodipodi:docname="felipelogomarca.svg">
  <defs
     id="defs4" />
  <sodipodi:namedview
     id="base"
     pagecolor="#ffffff"
     bordercolor="#666666"
     borderopacity="1.0"
     inkscape:pageopacity="0.0"
     inkscape:pageshadow="2"
     inkscape:zoom="0.7"
     inkscape:cx="362.81463"
     inkscape:cy="357.53453"
     inkscape:document-units="px"
     inkscape:current-layer="layer1"
     showgrid="false"
     inkscape:window-width="1360"
     inkscape:window-height="715"
     inkscape:window-x="0"
     inkscape:window-y="24"
     inkscape:window-maximized="1" />
  <metadata
     id="metadata7">
    <rdf:RDF>
      <cc:Work
         rdf:about="">
        <dc:format>image/svg+xml</dc:format>
        <dc:type
           rdf:resource="http://purl.org/dc/dcmitype/StillImage" />
        <dc:title></dc:title>
      </cc:Work>
    </rdf:RDF>
  </metadata>
  <g
     inkscape:label="Camada 1"
     inkscape:groupmode="layer"
     id="layer1">
    <g
       id="g3082"
       transform="translate(-264.28572,291.42857)">
      <path
         inkscape:connector-curvature="0"
         id="path3066"
         d="m 293.57143,269.86218 12.5,-2.5 10,-1.42857 8.92857,-0.71429 13.21429,0 8.57142,0.71429 11.78572,1.78571 10,2.14286 1.42857,0.35714 -8.21429,17.5 -6.42857,14.28572 -3.21428,7.14286 -2.5,9.64285 -1.42857,4.28572 0,16.42857 -4.28572,0 -1.78571,0.35714 0.71428,9.64286 16.42857,1.42857 16.78572,3.21429 15.35714,4.64285 -12.14286,5.71429 -9.64285,2.5 -10.71429,1.78571 0,12.5 -2.14286,7.14286 -5.71428,6.07143 -5.71429,5.35714 0,2.14286 1.78572,1.07143 1.07143,4.64285 -0.35715,6.78572 -1.78571,5.35714 -2.14286,3.21429 0.71429,2.14285 1.42857,1.42858 1.42857,5 0.35714,9.28571"
         style="fill:none;stroke:#000000;stroke-width:1px;stroke-linecap:butt;stroke-linejoin:miter;stroke-opacity:1" />
      <path
         inkscape:connector-curvature="0"
         id="path3068"
         d="m 351.78571,457.36218 0.71429,6.78572 5.35714,9.64285 3.57143,8.92857 1.78572,6.78572 0.35714,6.42857 -8.57143,7.14286 0,10.71428 8.92857,0.35715 0.35714,1.07142 8.21429,4.64286 7.5,8.21429 5.35714,8.92857 2.5,9.28571 0.35715,3.92857"
         style="fill:none;stroke:#000000;stroke-width:1px;stroke-linecap:butt;stroke-linejoin:miter;stroke-opacity:1" />
      <path
         inkscape:connector-curvature="0"
         id="path3070"
         d="m 293.21429,269.86218 5.71428,11.07143 7.5,15.35714 6.78572,14.28572 2.85714,15.35714 -0.35714,13.92857 5,0 0.71428,10 -23.57143,2.14286 -23.57143,6.07143 7.85715,5 11.78571,3.92857 11.42857,2.14286 0.71429,13.57142 4.28571,9.64286 6.78572,6.78572 1.07143,0.35714 0.35714,2.14286 -2.85714,4.28571 0.71428,8.57143 1.42857,4.64286 0.71429,2.85714 2.14286,1.78571 -2.5,2.14286 -0.35715,4.64286 -0.35714,7.85714 0.35714,5.71429 -0.71428,-3.21429 -1.42857,-2.14286 -2.14286,-3.21428 -4.28572,-1.07143 -11.78571,0 0.71429,16.78571 3.21428,1.42857 3.57143,1.07143 1.78571,0 4.64286,1.78572 1.78572,2.85714 0,4.28571 -3.92858,7.85715 -6.78571,11.42857 -0.71429,3.57143 -0.35714,10.35714 8.21429,8.21429 0.71428,3.57142 0.71429,2.85715 -1.07143,2.85714 -8.21429,1.78571 -8.92857,3.92858 -6.78571,6.42857 -6.42857,10.35714 -3.21429,10 0.71429,8.92857 0.35714,7.14286 3.57143,10.71428 11.07143,10 8.92857,5 17.14286,3.21429 26.78571,0"
         style="fill:none;stroke:#000000;stroke-width:1px;stroke-linecap:butt;stroke-linejoin:miter;stroke-opacity:1" />
      <path
         inkscape:connector-curvature="0"
         id="path3072"
         d="m 345.35714,592.36218 -10,15 -4.64285,5.71429 -3.21429,6.42857 -1.42857,16.78571 4.64286,1.78572 0,0.71428 1.42857,0 3.57143,-5.71428 5,-4.64286 4.64285,-10.71429 0.71429,-6.42857 37.85714,-35.71428 6.78572,6.78571 6.42857,4.64286 13.21428,7.14286 15,4.64285 33.92858,-1.42857 29.28571,-6.07143 25.35714,-9.64285 13.21429,-9.64286 -0.71429,-13.57143 -7.5,-9.28571 L 505,542.36218 485.71429,538.07647 460,536.29075 l -19.28571,1.07143 -8.21429,2.14286 16.42857,-10 23.92857,-22.14286 16.07143,-26.78571 12.14286,-31.42857 11.07143,-34.28572 2.85714,-24.64286 -2.14286,-32.14285 -7.5,-13.92857 -13.21428,-6.42858 -15,-0.71428 -19.28572,6.07143 -19.64285,10.71428 -20.35715,14.28572 -22.14285,21.78571 -27.14286,31.42857 -1.78572,0 -18.92857,19.64286"
         style="fill:none;stroke:#000000;stroke-width:1px;stroke-linecap:butt;stroke-linejoin:miter;stroke-opacity:1" />
      <path
         inkscape:connector-curvature="0"
         id="path3074"
         d="m 352.85714,457.36218 2.85715,-4.28571 8.57142,-4.64286 11.42858,-10.71429 3.21428,-4.28571 0.71429,-2.85714 40,-40.35715 25.71428,-20.71428 18.92858,-11.42857 11.78571,-4.64286 13.57143,0 6.78571,9.64286 2.14286,17.85714 0.35714,11.78571 -4.28571,22.14286 -6.07143,25 -8.57143,20 -13.21428,25.71429 -11.07143,16.07143 -16.07143,14.28571 -15,9.64286 -31.78572,21.07143 -3.21428,4.64285 -1.42857,0"
         style="fill:none;stroke:#000000;stroke-width:1px;stroke-linecap:butt;stroke-linejoin:miter;stroke-opacity:1" />
      <path
         inkscape:connector-curvature="0"
         id="path3076"
         d="m 327.99507,635.03407 c -0.33714,-0.87859 -0.34321,-4.81534 -0.0135,-8.74836 0.64231,-7.66152 0.51892,-7.41437 12.0541,-24.14383 8.43201,-12.22894 8.60656,-11.96938 -8.08123,-12.01722 -15.91284,-0.0457 -29.06711,-2.31077 -35.23324,-6.06715 -2.15059,-1.31013 -6.28777,-4.44951 -9.19374,-6.97638 -6.32719,-5.50179 -8.25382,-10.1012 -9.32946,-22.27199 -0.62982,-7.12628 -0.43884,-9.51714 1.12314,-14.06058 2.28319,-6.64131 6.66374,-13.64726 11.16057,-17.84943 3.54049,-3.30851 12.41389,-7.48594 15.90111,-7.48594 1.14707,0 2.95566,-0.87007 4.01908,-1.9335 2.88879,-2.88878 1.29265,-8.37811 -4.00595,-13.777 -4.16563,-4.24446 -4.2356,-4.43192 -3.81332,-10.21655 0.35677,-4.88728 1.41269,-7.61098 6.18843,-15.96272 8.13284,-14.22261 7.53956,-18.58738 -2.81875,-20.73776 -3.04145,-0.6314 -5.71353,-1.45834 -5.93798,-1.83765 -0.22444,-0.37932 -0.73307,-3.98528 -1.13029,-8.01326 l -0.72221,-7.32361 6.62916,0 c 5.55633,0 6.96882,0.36458 8.72792,2.25274 1.15431,1.23902 2.35772,3.28457 2.67424,4.54569 1.19403,4.75741 2.377,2.00936 2.383,-5.53574 0.004,-4.91424 0.55938,-8.88922 1.49209,-10.67746 1.31222,-2.51587 1.30774,-3.12062 -0.0383,-5.17493 -0.83828,-1.27938 -1.9556,-4.97709 -2.48293,-8.21713 -0.76711,-4.71333 -0.65974,-6.34739 0.53714,-8.17405 2.30585,-3.51917 1.85744,-4.92853 -3.06144,-9.6222 -5.38554,-5.13896 -8.57462,-13.09114 -8.57462,-21.38136 l 0,-5.46638 -4.79823,-0.71785 c -6.75787,-1.01102 -19.51362,-5.23796 -22.26351,-7.37758 -2.29327,-1.78434 -2.21573,-1.82281 9.09137,-4.51021 6.27241,-1.49079 16.36639,-3.17948 22.43108,-3.75265 6.06469,-0.57316 11.19011,-1.20552 11.38982,-1.40523 0.19971,-0.19971 0.0617,-2.92748 -0.30665,-6.06171 -0.60596,-5.15581 -0.90068,-5.69859 -3.09427,-5.69859 -2.3493,0 -2.42014,-0.22722 -2.28331,-7.32361 0.26009,-13.48934 -1.55624,-19.76163 -11.76967,-40.64391 -5.16691,-10.56419 -9.07908,-19.49591 -8.69373,-19.84825 1.26549,-1.15708 18.68035,-3.87448 28.98492,-4.52277 11.72078,-0.7374 37.76911,2.0921 41.71597,4.5314 0.85734,0.52987 -1.24628,6.14091 -7.26447,19.37674 -9.66485,21.25593 -12.73322,31.22516 -12.73322,41.3706 l 0,7.0598 -3.14827,0 c -2.77192,0 -3.07546,0.2717 -2.53918,2.27284 0.335,1.25006 0.61531,3.91496 0.62289,5.922 l 0.0138,3.64916 8.82555,0.7161 c 11.00605,0.89302 32.6075,5.33071 36.02903,7.40161 2.39211,1.44785 -12.43854,6.6791 -24.90407,8.78447 l -3.78807,0.63979 -0.006,6.26767 c -0.008,9.44295 -1.3206,12.72232 -7.55302,18.87732 -5.34485,5.27848 -6.9952,9.12079 -4.56315,10.62388 1.7452,1.07859 1.08568,10.84741 -1.05016,15.55493 -1.89145,4.16889 -1.91329,4.59993 -0.35358,6.98035 0.9143,1.39539 1.89369,5.41896 2.17642,8.94126 0.28274,3.52229 0.72376,6.40418 0.98004,6.40418 1.3866,0 27.68328,-26.47143 36.62717,-36.87057 5.73403,-6.66701 15.24055,-17.03848 21.12561,-23.04772 17.95426,-18.33312 43.9049,-35.10068 63.22803,-40.85368 8.80617,-2.62183 11.00828,-2.9168 17.17259,-2.30019 4.37117,0.43725 9.26549,1.75394 12.81825,3.44845 5.07214,2.41917 6.18909,3.53132 9.50938,9.46857 3.67396,6.56966 3.78586,7.08384 4.77103,21.92478 1.64767,24.821 0.0924,36.24204 -8.36497,61.43028 -10.57458,31.49355 -16.36823,45.23752 -25.06939,59.47076 -6.99581,11.44366 -9.03913,13.89849 -19.67747,23.64035 -6.52907,5.97888 -15.5068,13.11404 -19.95052,15.85592 -4.44371,2.74187 -8.07947,5.44848 -8.07947,6.01468 0,0.56621 0.72623,0.75079 1.61385,0.41017 9.33954,-3.58392 43.22423,-3.15823 61.01561,0.76652 13.59646,2.99935 23.5095,7.98162 28.03173,14.08865 2.8556,3.85633 3.283,5.23101 3.283,10.55943 l 0,6.12593 -6.37465,4.54886 c -14.9609,10.67588 -47.02687,19.3623 -76.31428,20.67293 -15.7027,0.70271 -17.31236,0.60327 -24.41375,-1.50825 -10.00771,-2.9757 -21.88745,-9.52164 -29.06044,-16.01283 l -5.7846,-5.23476 -19.18225,18.04809 c -17.01181,16.00597 -19.24477,18.47675 -19.73472,21.83666 -0.76155,5.22241 -5.41708,15.01505 -7.72571,16.25059 -1.04683,0.56025 -2.53036,2.19025 -3.29673,3.62222 -1.55118,2.89842 -4.82386,3.46921 -5.76902,1.00617 l 0,0 z m 64.12755,-85.34929 c 0.71922,-1.15166 12.07914,-9.19399 25.24427,-17.87186 26.88097,-17.71875 36.35954,-25.58144 44.12513,-36.60278 6.41364,-9.10257 16.82677,-28.70344 23.34438,-43.94163 7.27205,-17.00208 14.85687,-50.49206 14.64189,-64.64977 -0.22556,-14.85508 -1.89404,-23.71669 -5.46315,-29.01584 l -3.21418,-4.77217 -8.19906,-0.026 c -6.18494,-0.0197 -9.5349,0.52174 -13.63706,2.2039 -9.27337,3.8027 -23.04088,12.70086 -37.25781,24.08028 -14.5059,11.61074 -53.53808,49.9968 -53.53808,52.65185 0,2.1393 -12.96161,14.66828 -18.5532,17.93395 -5.46549,3.19201 -8.72092,7.09744 -8.72092,10.46218 0,1.36881 2.25095,7.20651 5.0021,12.97265 2.84705,5.96711 5.39261,12.98771 5.9085,16.29549 l 0.90639,5.81159 -4.39327,3.59995 c -4.27259,3.50107 -4.39326,3.76214 -4.39326,9.50444 l 0,5.9045 4.29314,0.70008 c 6.63647,1.08221 13.70163,5.44392 18.642,11.50874 5.78893,7.10651 7.92063,11.38399 9.51134,19.08544 1.38746,6.71747 3.29435,8.09853 5.75085,4.16506 l 0,0 z"
         style="fill:#000000;fill-opacity:1;stroke:none" />
    </g>
    <text
       xml:space="preserve"
       style="font-size:116.87817383px;font-style:italic;font-variant:normal;font-weight:bold;font-stretch:normal;line-height:125%;letter-spacing:0px;word-spacing:0px;fill:#000000;fill-opacity:1;stroke:none;font-family:Steve;-inkscape-font-specification:Steve Bold Italic"
       x="261.37183"
       y="784.30621"
       id="text3078"
       sodipodi:linespacing="125%"><tspan
         sodipodi:role="line"
         id="tspan3080"
         x="261.37183"
         y="784.30621">narcos</tspan></text>
    <path
       style="fill:#0000ff;fill-opacity:0.89928056;stroke:#000000;stroke-width:4.14285707;stroke-miterlimit:4;stroke-opacity:1;stroke-dasharray:none;stroke-dashoffset:0"
       d="m 64.528916,919.69828 c 0,-7.00931 0.769665,-8.87294 8.571428,-20.75437 9.34855,-14.23706 10.270762,-17.22066 5.357143,-17.33184 -11.702704,-0.26482 -34.226478,-2.72726 -39.482524,-4.31648 -9.256824,-2.7989 -20.820502,-13.90622 -22.844072,-21.94255 -4.984985,-19.79717 3.314061,-38.75115 19.988728,-45.65172 10.051847,-4.15983 10.528697,-4.53534 11.019645,-8.67797 0.327546,-2.76383 -0.897411,-5.64311 -4.092025,-9.61838 -3.985003,-4.9588 -4.444749,-6.39143 -3.648685,-11.36975 0.500959,-3.13283 3.145942,-10.13437 5.87774,-15.559 6.216255,-12.34383 6.370503,-16.27794 0.752136,-19.18331 -2.318124,-1.19874 -5.173041,-2.17954 -6.344261,-2.17954 -2.810088,0 -3.263488,-0.90685 -4.46407,-8.92858 l -1.015595,-6.78571 5.820842,0 c 5.483947,0 11.646427,3.92204 11.646427,7.41223 0,0.63756 0.642857,1.1592 1.428571,1.1592 0.785715,0 1.428572,-2.41496 1.428572,-5.36657 0,-2.95162 0.629185,-7.56042 1.398191,-10.24179 1.040704,-3.62873 0.824573,-6.84837 -0.845326,-12.59263 -1.821751,-6.2666 -1.919264,-8.50023 -0.518708,-11.88147 1.585203,-3.82702 1.350088,-4.59084 -2.904812,-9.4369 -5.967984,-6.79716 -8.557917,-13.12882 -8.557917,-20.92172 l 0,-6.24712 -8.214285,-1.82502 c -10.909146,-2.42375 -19.392987,-5.88113 -17.950421,-7.31526 1.384637,-1.37654 31.967579,-7.02866 38.031222,-7.02866 4.139219,0 4.207763,-0.12082 3.416341,-6.02131 -0.444195,-3.31172 -1.711691,-6.68672 -2.81666,-7.5 -1.257022,-0.9252 -2.328635,-5.4892 -2.86287,-12.19298 -0.884458,-11.09853 -3.249048,-18.0437 -13.809538,-40.56076 -3.276894,-6.98698 -5.438902,-13.21756 -4.80446,-13.84572 5.341976,-5.28907 61.312381,-5.29181 66.600937,-0.003 0.87744,0.87745 -1.54674,8.14109 -6.722014,20.14131 -8.142772,18.88114 -12.236613,32.54024 -12.275707,40.95788 -0.01559,3.35676 -0.808025,4.79634 -3.028068,5.50095 -2.471748,0.78451 -2.853152,1.72337 -2.142857,5.27484 0.475252,2.37626 0.864095,5.2044 0.864095,6.28476 0,1.2628 1.658057,1.96592 4.642857,1.96885 5.828063,0.006 28.726104,3.88212 35.272984,5.97133 l 4.91584,1.56873 -6.34441,2.48618 c -3.48943,1.36741 -10.04084,3.25116 -14.5587,4.18612 l -8.214286,1.69993 0,6.23429 c 0,8.15672 -2.01889,13.22674 -7.550367,18.96119 -4.78273,4.95823 -4.503746,3.43493 -5.421431,29.60195 -0.223399,6.37003 1.736554,17.808 3.207238,18.71694 1.302617,0.80506 11.273117,-8.98231 51.193136,-50.25285 23.64977,-24.44986 36.93944,-34.65001 57.55528,-44.17512 18.9033,-8.73387 29.07637,-9.55242 42.0316,-3.38197 4.74336,2.25923 6.81443,4.49816 9.79367,10.58752 3.56355,7.28362 3.78439,8.96223 3.88683,29.54251 0.11857,23.81389 -0.96488,29.6701 -10.96014,59.24229 -14.92856,44.16794 -27.1916,63.67121 -52.46514,83.44104 -6.4242,5.02523 -13.02102,10.19397 -14.65958,11.48608 -2.78997,2.20008 -1.6199,2.30206 18.41913,1.6054 33.25286,-1.15601 55.69932,3.58896 66.78785,14.11835 5.09267,4.83587 5.46072,5.71977 5.05168,12.13181 -0.41796,6.5518 -0.81726,7.16249 -7.58404,11.59924 -7.72964,5.06805 -31.09633,13.11056 -47.14286,16.22595 -5.5691,1.08123 -19.17828,1.94778 -30.71428,1.95571 -19.00345,0.0129 -21.36323,-0.27838 -28.57143,-3.52876 -4.32143,-1.94864 -11.90905,-6.60935 -16.86137,-10.35714 -4.95232,-3.74777 -9.45731,-6.81414 -10.01109,-6.81414 -0.55377,0 -9.09603,7.67004 -18.9828,17.04454 -16.145067,15.30854 -18.300296,17.93414 -21.160586,25.77876 -3.005113,8.2418 -10.319951,18.60527 -13.132145,18.60527 -0.70432,0 -1.280583,-3.46536 -1.280583,-7.7008 z M 130.2432,840.15391 c 1.96429,-1.59277 11.28572,-8.11446 20.71429,-14.49266 22.23527,-15.04161 28.39231,-19.72631 37.53528,-28.55944 14.42666,-13.93774 32.9163,-50.0668 40.36813,-78.87993 8.29096,-32.05766 8.86103,-53.17873 1.82984,-67.79539 l -3.69768,-7.68688 -10.00666,0.93002 c -11.95573,1.11117 -22.7774,6.35768 -41.02891,19.89144 -16.65029,12.34642 -47.60128,41.2491 -60.34323,56.34974 -5.7957,6.86856 -14.35729,15.5588 -19.025773,19.31166 -4.668478,3.75285 -9.050363,8.05144 -9.73752,9.55241 -0.897411,1.96021 0.21156,6.33743 3.936537,15.53787 7.697503,19.01229 7.881415,20.93382 2.506562,26.18873 -3.483315,3.40559 -4.479436,5.60026 -4.479436,9.86919 0,5.25272 0.262104,5.55945 6.071429,7.10502 11.761521,3.12919 22.219891,14.32028 26.210221,28.04653 2.41258,8.299 3.774,8.98837 9.14692,4.63169 l 0,0 z"
       id="path2991"
       inkscape:connector-curvature="0" />
    <path
       style="fill:#0000ff;fill-opacity:0.89928056;stroke:#000000;stroke-width:4.14285707;stroke-miterlimit:4;stroke-opacity:1;stroke-dasharray:none;stroke-dashoffset:0"
       d=""
       id="path3045"
       inkscape:connector-curvature="0" />
    <path
       style="fill:#0000ff;fill-opacity:0.89928056;stroke:#000000;stroke-width:4.14285707;stroke-miterlimit:4;stroke-opacity:1;stroke-dasharray:none;stroke-dashoffset:0"
       d="m 273.96721,783.36024 c -1.03863,-1.68054 -4.78781,-22.66804 -7.13597,-39.94643 -1.53972,-11.32968 -2.86985,-16.01748 -5.8021,-20.44841 -3.42953,-5.18236 -3.64223,-6.2403 -2.15851,-10.73602 3.93734,-11.93024 11.69489,0.75726 14.95283,24.45541 2.98227,21.69294 5.11388,30.71429 7.25735,30.71429 3.31592,0 10.64075,-10.60187 13.34104,-19.30968 1.46599,-4.72747 3.12898,-12.9239 3.69553,-18.21429 0.65054,-6.07459 1.67461,-9.61889 2.77924,-9.61889 1.76763,0 37.91801,53.07976 37.91801,55.67519 0,0.77099 -1.63348,2.4721 -3.62995,3.78024 -5.67277,3.71694 -9.37293,0.92204 -18.5355,-14.00075 -8.10458,-13.19968 -13.09834,-19.74039 -15.07156,-19.74039 -0.56357,0 -1.45905,1.76786 -1.98995,3.92857 -1.6403,6.67585 -10.38365,23.6516 -15.08359,29.28571 -4.18634,5.01844 -8.86904,6.87405 -10.53687,4.17545 l 0,0 z"
       id="path3047"
       inkscape:connector-curvature="0" />
    <path
       style="fill:#0000ff;fill-opacity:0.89928056;stroke:#000000;stroke-width:4.14285707;stroke-miterlimit:4;stroke-opacity:1;stroke-dasharray:none;stroke-dashoffset:0"
       d=""
       id="path3049"
       inkscape:connector-curvature="0" />
    <path
       style="fill:#0000ff;fill-opacity:0.89928056;stroke:#000000;stroke-width:4.14285707;stroke-miterlimit:4;stroke-opacity:1;stroke-dasharray:none;stroke-dashoffset:0"
       d="m 345.60034,782.27316 c -2.95209,-1.58418 -3.92857,-3.17973 -3.92857,-6.41922 0,-13.20827 18.42396,-27.28873 38.4448,-29.38132 9.47934,-0.99079 11.67243,-2.73433 13.52944,-10.75611 0.82664,-3.57089 0.3389,-4.04155 -7.33005,-7.0733 -7.30139,-2.88645 -10.75914,-3.25561 -31.07276,-3.31743 -22.30159,-0.0679 -22.86782,-0.14448 -23.2964,-3.1523 -0.34231,-2.40227 0.48702,-3.28619 3.75707,-4.00441 5.28866,-1.16158 41.90613,1.55608 49.53933,3.6767 19.62752,5.45282 28.30829,17.65817 20.71429,29.12474 -4.04495,6.10766 -3.59702,11.20077 1.49514,17.00042 4.76746,5.42983 13.1983,9.15561 22.07629,9.756 4.48161,0.30307 5.60008,-0.0758 5.18486,-1.75642 -0.29118,-1.17857 -1.42746,-5.35714 -2.52507,-9.28572 -1.0976,-3.92857 -2.40306,-13.41332 -2.90102,-21.07723 -0.79412,-12.2221 -0.58828,-14.28476 1.67505,-16.78572 4.57585,-5.05625 6.42332,-3.61648 6.42332,5.00581 0,4.32143 0.48214,7.85562 1.07143,7.85375 0.58928,-0.002 2.86557,-3.43727 5.05842,-7.63422 5.35029,-10.2401 14.40792,-19.20866 20.56618,-20.36396 3.04546,-0.57133 7.80277,0.005 12.66251,1.53331 9.73359,3.06159 10.42082,6.42779 1.9885,9.7401 -5.68443,2.2329 -5.8541,2.20961 -8.82905,-1.21188 -1.66828,-1.91869 -3.85922,-3.48853 -4.86876,-3.48853 -3.27665,0 -12.03508,8.86213 -15.40333,15.58569 -4.39082,8.76476 -5.15014,14.26685 -3.9608,28.70003 1.41024,17.11384 0.91601,20 -3.42483,20 -1.93675,0 -3.86683,-0.90026 -4.28906,-2.00058 -0.60263,-1.57042 -1.84987,-1.70178 -5.80072,-0.61089 -5.22548,1.44282 -14.81821,0.46972 -19.77049,-2.00554 -1.57143,-0.78544 -6.48307,-4.23376 -10.91476,-7.66294 -7.9603,-6.15958 -8.09832,-6.20396 -11.42857,-3.67498 -14.96279,11.36271 -36.44448,17.97805 -44.44239,13.68615 z m 23.92858,-8.42358 c 10.32988,-4.54674 23.57142,-13.3541 23.57142,-15.67807 0,-1.09831 -1.07794,-3.07487 -2.39543,-4.39236 -7.10291,-7.10291 -43.31885,8.88377 -43.31885,19.1221 0,6.51681 8.64999,6.88727 22.14286,0.94833 z"
       id="path3089"
       inkscape:connector-curvature="0" />
    <path
       style="fill:#0000ff;fill-opacity:0.89928056;stroke:#000000;stroke-width:4.14285707;stroke-miterlimit:4;stroke-opacity:1;stroke-dasharray:none;stroke-dashoffset:0"
       d="m 516.98017,784.51085 c -13.95586,-2.20731 -25.81336,-8.68621 -29.9487,-16.36388 -3.8119,-7.07716 -3.84402,-12.44334 -0.1185,-19.7953 7.53563,-14.87085 24.23169,-27.32167 38.97949,-29.06833 7.80634,-0.92454 20.06503,3.54828 20.06503,7.32112 0,1.85064 -2.21441,2.22553 -13.21429,2.23715 -10.83094,0.0114 -14.50258,0.61515 -20.35714,3.34725 -13.89933,6.4863 -22.50551,20.77277 -17.68603,29.35926 3.16614,5.64088 13.53662,12.74598 22.33861,15.30479 11.95132,3.47434 31.52859,2.17692 42.42488,-2.81156 7.40766,-3.39134 8.14073,-4.11111 7.1262,-6.99695 -2.16969,-6.17173 -1.24286,-15.94621 2.18268,-23.01883 3.80773,-7.86169 11.36779,-14.02907 21.69185,-17.69585 4.8663,-1.72836 7.30366,-3.54649 8.44354,-6.2984 1.92856,-4.65595 2.78341,-4.43518 16.33541,4.21869 19.27612,12.3091 34.03272,26.22376 36.33914,34.2658 2.5959,9.0514 -4.48245,18.18233 -16.88538,21.78179 -8.24213,2.39195 -28.81366,4.27127 -36.59662,3.3433 -3.92857,-0.46841 -10.84739,-2.4773 -15.37516,-4.4642 l -8.2323,-3.61255 -9.9028,4.5645 c -8.65086,3.98744 -11.764,4.63558 -24.62484,5.1268 -8.09712,0.30927 -18.4404,-0.0258 -22.98507,-0.7446 l 0,0 z m 121.43497,-8.95973 c 9.7764,-5.24325 9.18632,-12.2106 -1.89961,-22.42926 -6.77493,-6.24491 -25.09423,-18.57992 -27.59391,-18.57992 -0.84456,0 -1.53556,1.24926 -1.53556,2.77613 0,5.88684 -11.86231,9.72236 -15.71429,5.08101 -2.47116,-2.97757 -3.50789,-2.7385 -8.98731,2.07249 -10.33927,9.078 -11.61137,20.20506 -2.79794,24.47353 2.3001,1.11397 4.12488,2.64544 4.05506,3.40326 -0.0698,0.75782 3.40876,2.51856 7.73019,3.91275 10.64618,3.43469 39.84217,2.99124 46.74337,-0.70999 z"
       id="path3091"
       inkscape:connector-curvature="0" />
    <path
       style="fill:#0000ff;fill-opacity:0.89928056;stroke:#000000;stroke-width:4.14285707;stroke-miterlimit:4;stroke-opacity:1;stroke-dasharray:none;stroke-dashoffset:0"
       d=""
       id="path3093"
       inkscape:connector-curvature="0" />
    <path
       style="fill:#0000ff;fill-opacity:0.89928056;stroke:#000000;stroke-width:4.14285707;stroke-miterlimit:4;stroke-opacity:1;stroke-dasharray:none;stroke-dashoffset:0"
       d="m 518.10034,785.80561 c -20.90654,-3.03682 -34.9815,-14.05397 -34.99466,-27.39201 -0.0172,-17.47827 25.8625,-40.22408 45.70895,-40.17377 8.29516,0.021 16.64916,3.35329 18.13881,7.23526 1.33307,3.47393 -2.29554,4.73563 -13.68735,4.75926 -5.8017,0.012 -13.07189,0.77788 -16.15597,1.7019 -10.24189,3.06854 -22.5812,16.56486 -22.5812,24.69855 0,3.83627 9.78489,13.17705 17.10011,16.32397 3.89193,1.67426 10.83537,3.43702 15.42988,3.91724 9.88267,1.03295 26.71627,-1.52286 33.30548,-5.05669 4.58823,-2.4607 4.67451,-2.68687 4.32176,-11.33004 -0.66052,-16.18429 6.15774,-26.27892 23.67189,-35.04693 4.07031,-2.0377 8.3659,-5.08312 9.54576,-6.76761 1.61089,-2.29986 3.03785,-2.83867 5.72902,-2.16323 5.6731,1.42386 28.28625,17.17728 37.0803,25.83193 10.07032,9.91071 12.92852,15.25328 11.97271,22.37945 l -0.72836,5.43024 8.38785,-4.23417 c 4.61331,-2.32879 9.37045,-4.23417 10.57142,-4.23417 3.58663,0 2.48092,2.63003 -2.10211,5 -2.35714,1.21893 -4.28571,2.82607 -4.28571,3.57143 0,3.92907 18.24477,8.58834 33.47665,8.54912 10.3897,-0.0268 24.59689,-3.15327 27.49415,-6.05053 1.8348,-1.8348 0.98625,-2.54186 -6.9402,-5.7829 -4.96683,-2.03089 -16.71689,-6.13823 -26.11125,-9.12742 -28.97587,-9.21986 -38.79597,-17.34477 -37.51904,-31.04237 0.87726,-9.41035 3.12226,-10.83161 17.1095,-10.83161 11.58727,0 16.7759,1.51472 16.7759,4.89742 0,2.5898 -3.43446,3.76974 -8.22991,2.82746 -2.38313,-0.46827 -6.56592,0.41083 -10.69866,2.24854 -8.09682,3.60043 -8.92432,7.49837 -2.87587,13.54682 5.41781,5.41781 10.79207,7.91643 34.94123,16.24504 33.20241,11.45092 37.55475,14.68367 28.91681,21.47827 -6.85857,5.39495 -12.71294,6.30914 -35.49109,5.54211 -22.38225,-0.75369 -40.74387,-3.93156 -43.76758,-7.57491 -1.44339,-1.73917 -2.25797,-1.62756 -5.62619,0.77081 -8.42801,6.00128 -20.45085,8.64801 -39.57467,8.71203 -10.9739,0.0367 -14.69129,-0.58461 -22.72409,-3.79824 l -9.60389,-3.84216 -7.90004,3.87454 c -5.42059,2.65851 -11.73941,4.27872 -20.13305,5.16231 -13.99449,1.4732 -16.18794,1.45319 -27.94729,-0.25494 z m 47.41476,-7.63853 8.84333,-4.01936 10.16697,3.76853 c 8.50572,3.15278 12.31279,3.736 23.29953,3.56935 l 13.13256,-0.19919 -12.46837,-1.10815 c -15.67305,-1.39298 -21.67497,-3.35747 -29.31735,-9.59587 -5.48048,-4.47367 -6.07143,-5.57097 -6.07143,-11.27374 0,-5.5447 0.81048,-7.18415 6.62406,-13.39934 7.06954,-7.55791 9.52243,-8.42619 13.53794,-4.7922 3.43344,3.10722 9.92957,0.91986 12.41596,-4.18066 1.02501,-2.1027 2.63752,-3.82308 3.58334,-3.82308 2.64943,0 18.48818,10.74903 26.6451,18.08282 8.0088,7.2006 12.15729,13.80414 10.83569,17.24818 -0.706,1.83979 -0.48103,1.90947 1.32521,0.41042 1.19656,-0.99305 2.17556,-3.93774 2.17556,-6.54375 0,-8.04666 -14.69833,-22.75502 -37.59438,-37.62002 l -9.67208,-6.2795 -3.86677,3.62233 c -2.12672,1.99228 -6.75963,5.05219 -10.29534,6.79981 -16.21716,8.01574 -22.02034,16.98131 -21.20139,32.7549 l 0.4871,9.38195 -6.43882,3.19866 c -14.79027,7.34747 -38.40555,7.86565 -52.14378,1.14416 -9.11324,-4.4587 -17.84597,-13.59883 -17.84597,-18.67853 0,-9.85545 10.1216,-21.75815 22.41288,-26.35691 5.18905,-1.94148 11.16541,-2.87881 18.355,-2.87881 11.20517,0 13.38255,-1.38309 6.60013,-4.19246 -7.02079,-2.9081 -17.63845,-2.1599 -25.36253,1.78724 -14.67623,7.49982 -27.67563,23.10743 -27.70636,33.26539 -0.0265,8.7784 8.5228,17.54877 21.62673,22.18584 6.46572,2.28801 10.8422,2.63113 28.35987,2.22345 19.11329,-0.44483 21.39778,-0.79274 29.55761,-4.50146 l 0,0 z m 63.09024,-2.13769 c 17.09035,-2.47087 19.2361,-9.72481 6.35818,-21.4945 -7.87336,-7.19581 -21.51661,-17.13581 -23.51993,-17.13581 -0.53933,0 -2.90918,1.92857 -5.26632,4.28571 -4.89901,4.89901 -10.68137,5.60365 -14.87092,1.81216 -2.6259,-2.37641 -2.98101,-2.21135 -9.04106,4.20255 -8.65688,9.16237 -8.72559,14.42127 -0.27711,21.21065 9.39954,7.55367 26.03754,10.09458 46.61716,7.11924 l 0,0 z"
       id="path3095"
       inkscape:connector-curvature="0" />
  </g>
</svg>
